HIERARCHY
ROOT root
{
	OFFSET 0.000000 0.000000 0.000000
	CHANNELS 6 Xposition Yposition Zposition Zrotation Yrotation Xrotation
	JOINT lhip
	{
		OFFSET 0.058581 -0.082280 -0.017664
		CHANNELS 3 Zrotation Yrotation Xrotation
		JOINT lknee
		{
			OFFSET 0.043451 -0.386469 0.008037
			CHANNELS 3 Zrotation Yrotation Xrotation
			JOINT lankle
			{
				OFFSET -0.014790 -0.426874 -0.037428
				CHANNELS 3 Zrotation Yrotation Xrotation
				JOINT ltoe
				{
					OFFSET 0.041054 -0.060286 0.122042
					CHANNELS 3 Zrotation Yrotation Xrotation
					End Site
					{
						OFFSET 0.000000 0.000000 0.000000
					}
				}
			}
		}
	}
	JOINT rhip
	{
		OFFSET -0.060310 -0.090513 -0.013543
		CHANNELS 3 Zrotation Yrotation Xrotation
		JOINT rknee
		{
			OFFSET -0.043257 -0.383688 -0.004843
			CHANNELS 3 Zrotation Yrotation Xrotation
			JOINT rankle
			{
				OFFSET 0.019056 -0.420046 -0.034562
				CHANNELS 3 Zrotation Yrotation Xrotation
				JOINT rtoe
				{
					OFFSET -0.034840 -0.062106 0.130323
					CHANNELS 3 Zrotation Yrotation Xrotation
					End Site
					{
						OFFSET 0.000000 0.000000 0.000000
					}
				}
			}
		}
	}
	JOINT lowerback
	{
		OFFSET 0.004439 0.124404 -0.038385
		CHANNELS 3 Zrotation Yrotation Xrotation
		JOINT upperback
		{
			OFFSET 0.004488 0.137956 0.026820
			CHANNELS 3 Zrotation Yrotation Xrotation
			JOINT chest
			{
				OFFSET -0.002265 0.056032 0.002855
				CHANNELS 3 Zrotation Yrotation Xrotation
				JOINT lowerneck
				{
					OFFSET -0.013390 0.211636 -0.033468
					CHANNELS 3 Zrotation Yrotation Xrotation
					JOINT upperneck
					{
						OFFSET 0.010113 0.088937 0.050410
						CHANNELS 3 Zrotation Yrotation Xrotation
						End Site
						{
							OFFSET 0.000000 0.000000 0.000000
						}
					}
				}
				JOINT lclavicle
				{
					OFFSET 0.071702 0.114000 -0.018898
					CHANNELS 3 Zrotation Yrotation Xrotation
					JOINT lshoulder
					{
						OFFSET 0.122921 0.045205 -0.019046
						CHANNELS 3 Zrotation Yrotation Xrotation
						JOINT lelbow
						{
							OFFSET 0.255332 -0.015649 -0.022946
							CHANNELS 3 Zrotation Yrotation Xrotation
							JOINT lwrist
							{
								OFFSET 0.265709 0.012698 -0.007375
								CHANNELS 3 Zrotation Yrotation Xrotation
								End Site
								{
									OFFSET 0.000000 0.000000 0.000000
								}
							}
						}
					}
				}
				JOINT rclavicle
				{
					OFFSET -0.082954 0.112472 -0.023707
					CHANNELS 3 Zrotation Yrotation Xrotation
					JOINT rshoulder
					{
						OFFSET -0.113228 0.046853 -0.008472
						CHANNELS 3 Zrotation Yrotation Xrotation
						JOINT relbow
						{
							OFFSET -0.260127 -0.014369 -0.031269
							CHANNELS 3 Zrotation Yrotation Xrotation
							JOINT rwrist
							{
								OFFSET -0.269108 0.006794 -0.006027
								CHANNELS 3 Zrotation Yrotation Xrotation
								End Site
								{
									OFFSET 0.000000 0.000000 0.000000
								}
							}
						}
					}
				}
			}
		}
	}
}
MOTION
Frames: 13
Frame Time: 0.033333
-0.052177 0.355035 0.940609 68.785327 1.157903 83.270343 5.503046 7.321545 -16.779622 2.156702 22.601004 46.362096 1.109167 3.212552 -24.141734 0.000000 -0.000000 0.000000 -7.252606 1.840661 -29.048193 -4.114358 -3.816393 42.551402 3.060048 9.941659 -5.802115 0.000000 -0.000000 0.000000 4.285972 -4.242356 44.828967 -0.732012 -4.234412 18.092263 2.784258 0.715769 -2.385354 -11.857208 1.868542 -11.528847 4.797657 2.195506 -19.631806 0.317614 -24.971965 -7.052805 -80.204200 -22.973317 10.487056 169.199535 -54.553369 -118.676997 -15.184327 -7.605282 -2.514267 -1.963367 26.550296 -5.506699 76.548380 25.010970 13.279192 -156.378337 57.287992 -113.347045 10.802672 7.795343 8.742479 
-0.053092 0.353016 0.942131 69.798851 1.064173 83.712346 5.437964 6.744338 -17.147380 1.860134 22.520232 45.830592 1.097325 2.984038 -23.660988 0.000000 -0.000000 0.000000 -7.476675 1.762498 -29.053993 -4.380549 -4.417299 42.276326 3.008345 9.591423 -5.703478 0.000000 -0.000000 0.000000 4.237041 -4.011520 44.258252 -0.437414 -4.329103 17.929413 2.914291 0.782790 -2.285593 -11.814941 1.927016 -11.078056 4.816529 1.946438 -19.431887 0.707620 -24.972387 -7.018342 -80.111126 -23.243002 10.419866 168.582093 -54.294483 -118.105397 -16.390915 -7.463458 -2.990523 -1.837543 26.360760 -5.369887 77.186193 24.829246 13.651096 -157.334593 57.230327 -113.736574 12.496893 6.993364 8.277022 
-0.053949 0.351178 0.944217 70.525830 1.058122 83.976641 5.495276 6.642128 -17.269640 1.582835 22.331167 45.368448 1.146212 2.681664 -23.303912 0.000000 -0.000000 0.000000 -7.564690 1.530165 -28.932980 -4.439084 -4.899081 41.989299 2.929510 9.519709 -5.642932 0.000000 -0.000000 0.000000 4.208704 -3.768628 44.094416 -0.248319 -4.433068 17.703470 3.095096 0.839640 -2.459234 -11.769953 2.019809 -10.683264 4.896999 1.763367 -19.041842 1.368314 -25.232566 -7.184598 -79.821741 -23.405154 10.182931 168.015828 -54.019396 -117.454288 -17.048805 -7.228383 -2.555064 -2.140558 26.634844 -5.312337 78.058577 24.737200 13.884481 -157.673145 57.086860 -113.781574 14.731117 6.185617 8.011934 
-0.054329 0.349191 0.944917 71.053666 1.102713 84.199214 5.720029 6.662519 -17.433983 1.333165 22.233393 45.192061 1.138193 2.306442 -23.134375 0.000000 -0.000000 0.000000 -7.614194 1.161154 -29.015375 -4.411238 -5.349891 42.091478 2.945783 9.638649 -5.677180 0.000000 -0.000000 0.000000 4.205833 -3.629935 43.953273 -0.175146 -4.463969 17.300261 3.105926 0.898930 -2.433349 -11.668502 2.179098 -10.763781 5.112276 1.412085 -18.950329 1.968074 -25.238220 -7.514282 -79.527072 -23.632007 10.174267 168.063659 -53.916182 -117.437600 -17.472773 -7.141520 -2.334935 -2.246162 26.642363 -5.387761 78.972852 24.847526 14.340866 -157.680094 57.367736 -113.686043 15.502823 5.875796 7.850058 
-0.054391 0.346735 0.943970 71.553192 1.112428 84.168634 5.911694 6.741950 -17.547476 1.223688 22.027511 45.487491 1.209465 2.067512 -23.311680 0.000000 -0.000000 0.000000 -7.761319 0.806428 -29.190955 -4.253497 -5.725601 42.868222 2.643663 9.739515 -6.283455 0.000000 -0.000000 0.000000 4.050111 -3.416240 43.797294 -0.058588 -4.470518 17.154026 3.203102 0.923267 -2.396090 -11.556592 2.170569 -10.873679 5.244396 1.200976 -18.983935 2.258594 -25.512044 -7.680839 -79.300632 -23.929495 10.031713 167.814401 -53.800173 -117.138891 -18.584887 -6.899295 -2.303784 -2.229612 26.772816 -5.509300 79.414251 25.023380 14.418163 -157.812958 57.521891 -113.353201 17.038668 5.049637 8.407437 
-0.054074 0.344516 0.941907 72.023998 1.115290 83.850300 6.073110 6.658333 -17.577298 1.207281 21.664220 46.202196 1.287800 2.014601 -23.614682 0.000000 -0.000000 0.000000 -7.975321 0.501951 -29.168563 -4.116378 -6.152986 43.831667 2.450729 9.883678 -6.849924 0.000000 -0.000000 0.000000 4.084823 -3.378243 43.915030 -0.108027 -4.518880 17.266200 3.178196 0.976731 -2.632851 -11.541499 2.003183 -10.890924 5.362776 1.248628 -19.225851 2.489320 -25.941477 -7.918594 -79.405880 -23.945052 9.802004 167.498666 -53.735606 -116.482106 -19.916729 -6.438091 -1.901938 -2.636106 27.166021 -5.767127 79.785334 25.033902 14.145241 -158.292845 57.113769 -113.009074 19.903608 3.369655 8.504730 
-0.053979 0.342322 0.939064 72.343100 1.076956 83.435254 6.216057 6.530988 -17.524616 1.156425 21.339245 47.000812 1.454310 2.183239 -24.113102 0.000000 -0.000000 0.000000 -8.133569 0.291548 -29.203120 -3.831351 -6.170851 44.996386 2.056481 9.544439 -7.397291 0.000000 -0.000000 0.000000 3.939154 -3.229965 43.949839 -0.025959 -4.526853 17.645721 3.211431 0.888604 -2.661099 -11.539732 1.679583 -10.848660 5.205969 1.271499 -19.365901 2.521973 -26.156519 -7.977332 -79.576792 -24.119695 9.744427 166.954415 -53.486841 -115.773676 -21.404889 -5.505468 -1.429303 -2.760739 27.493805 -5.924969 79.286375 25.629812 14.071572 -158.510762 56.568753 -113.374133 23.701650 1.052812 7.343682 
-0.053869 0.339934 0.936099 72.652994 0.970758 82.972356 6.314751 6.428453 -17.511048 1.089915 21.028673 47.956423 1.554477 2.300320 -24.555229 0.000000 -0.000000 0.000000 -8.280832 0.226394 -29.198052 -3.802183 -6.230766 46.156323 1.633944 9.403652 -8.210408 0.000000 -0.000000 0.000000 3.854627 -3.094098 44.042734 -0.029764 -4.575287 18.170662 3.157320 0.793079 -2.795254 -11.505337 1.515829 -10.595505 5.255998 1.201802 -19.485883 2.571125 -26.576231 -8.062501 -79.886366 -23.975507 9.612348 166.217589 -52.952156 -114.670735 -23.234456 -4.907945 -1.353165 -3.398091 27.670247 -6.516484 79.923345 25.839383 13.945546 -158.645900 55.853310 -112.772936 29.269658 -1.114548 5.401819 
-0.053957 0.337321 0.933645 72.867343 0.901580 82.540248 6.499357 6.222252 -17.390762 1.052392 20.947520 48.672533 1.886301 2.434079 -24.946411 0.000000 -0.000000 0.000000 -8.307537 0.321326 -29.164911 -3.584806 -6.070655 47.137424 1.157126 8.901850 -8.790848 0.000000 -0.000000 0.000000 3.645677 -2.947759 44.098835 0.083553 -4.594784 19.018138 3.144453 0.781474 -3.021738 -11.451545 1.264173 -10.698000 5.172273 1.235672 -19.326283 2.634677 -26.821295 -8.261315 -80.159476 -23.756476 9.708323 165.684121 -52.436807 -114.069630 -24.381438 -4.208206 -1.217723 -3.867578 27.872592 -7.021846 79.998447 26.108488 13.879799 -158.839807 54.868713 -112.423686 35.579674 -3.385907 4.036859 
-0.054221 0.334925 0.932030 73.221576 0.776738 82.193155 6.500957 6.051262 -17.322827 0.976132 20.708555 49.136835 2.063047 2.590831 -25.093582 0.000000 -0.000000 0.000000 -8.399714 0.254385 -29.047837 -3.534954 -6.048491 47.807940 0.827658 8.550466 -9.147941 0.000000 -0.000000 0.000000 3.510701 -2.932817 44.030701 0.149103 -4.744800 19.724092 3.090939 0.731936 -2.945867 -11.343455 1.132054 -10.821205 5.161319 1.190692 -18.934807 2.935608 -26.923960 -8.585601 -80.366142 -23.798357 9.791704 165.174437 -51.996118 -113.579397 -25.307078 -3.619990 -0.943565 -4.256351 27.895063 -7.487419 80.045914 26.444355 13.857795 -159.048342 54.147423 -112.345074 41.075512 -5.002242 3.242378 
-0.054615 0.333195 0.931586 73.367943 0.709120 82.103918 6.555512 6.049863 -17.286157 0.953653 20.696767 49.223753 1.990007 2.481202 -25.117782 0.000000 -0.000000 0.000000 -8.473172 0.403255 -29.027926 -3.578451 -6.256896 48.065128 0.708826 8.498267 -9.415183 0.000000 -0.000000 0.000000 3.509593 -2.971972 44.132636 0.144800 -4.715135 20.189627 3.070745 0.703988 -3.191039 -11.422439 1.077814 -10.660134 5.174997 1.286365 -18.929008 3.108797 -27.198601 -8.754636 -80.366605 -24.080783 9.635169 164.621930 -51.332654 -112.999476 -26.574120 -3.337007 -0.503272 -4.519085 28.137056 -7.627198 79.970607 26.509987 13.645709 -159.221390 53.516757 -112.497974 43.940841 -5.270163 2.557501 
-0.055092 0.331123 0.932395 73.595686 0.721721 82.062543 6.638151 6.238983 -17.179138 0.863773 20.495874 49.020972 1.932158 2.261253 -25.053649 0.000000 -0.000000 0.000000 -8.358466 0.236839 -28.810418 -3.716681 -6.438990 47.911927 0.622965 8.584275 -9.353056 0.000000 -0.000000 0.000000 3.558849 -2.920064 44.308706 0.231998 -4.740710 20.247085 3.199098 0.662531 -3.075971 -11.535576 1.121028 -10.671471 5.294705 1.258216 -18.886064 3.575929 -27.660959 -8.957788 -80.147154 -24.803804 9.401693 163.972213 -50.428752 -112.122744 -26.695548 -3.354596 -0.488703 -4.771515 28.309594 -7.818696 79.830433 26.484563 13.349916 -159.203203 53.177509 -112.626273 44.504961 -4.437999 1.547010 
-0.056045 0.329761 0.934558 73.726029 0.643933 82.374036 6.535125 6.199598 -17.255255 0.975779 20.624504 48.412039 1.780828 1.954147 -24.676406 0.000000 -0.000000 0.000000 -8.379659 0.109791 -28.777885 -3.808787 -6.706691 47.265304 0.848792 8.714014 -8.958914 0.000000 -0.000000 0.000000 3.617143 -2.825821 44.313420 0.247343 -4.838606 20.421225 3.303067 0.666112 -3.246188 -11.718554 1.229028 -10.750829 5.402540 1.197678 -19.031764 4.057082 -28.189877 -9.286638 -79.392707 -25.750468 9.295161 163.506333 -49.332601 -111.730216 -26.024408 -3.585058 0.200707 -4.702729 28.634057 -7.651982 79.268952 26.329462 13.140157 -159.235240 53.024866 -112.993561 43.214120 -2.843860 2.313957 
